<svg width="160" height="37" viewBox="0 0 160 37" fill="none" xmlns="http://www.w3.org/2000/svg">
<g clip-path="url(#clip0_1_441)">
<path d="M54.1387 30.0229C53.5439 30.0229 53.0978 29.92 52.8003 29.7141C52.5028 29.5311 52.3085 29.2793 52.2169 28.9591C52.1253 28.6389 52.0796 28.2957 52.0796 27.9296V8.09386C52.0796 7.72779 52.1139 7.39607 52.1825 7.09864C52.2741 6.77835 52.4684 6.52667 52.7659 6.34365C53.0635 6.13774 53.5323 6.03479 54.173 6.03479L60.6247 6.06911C62.2949 6.06911 63.8276 6.35508 65.2233 6.92705C66.6417 7.49903 67.8658 8.3112 68.8953 9.36362C69.9249 10.416 70.7142 11.6743 71.2632 13.1386C71.8353 14.5799 72.1212 16.17 72.1212 17.9088C72.1212 19.6933 71.8353 21.3291 71.2632 22.8162C70.6912 24.3033 69.8905 25.5845 68.861 26.6598C67.8315 27.735 66.6074 28.5702 65.189 29.165C63.7933 29.737 62.2377 30.0229 60.5218 30.0229H54.1387ZM56.232 25.8705H60.6247C62.089 25.8705 63.3702 25.5502 64.4683 24.9096C65.5665 24.2461 66.4131 23.331 67.0078 22.1642C67.6256 20.9974 67.9344 19.6361 67.9344 18.0803C67.9344 16.5017 67.6256 15.129 67.0078 13.9622C66.4131 12.7725 65.5551 11.8574 64.434 11.2168C63.3358 10.5533 62.0547 10.2216 60.5904 10.2216H56.232V25.8705ZM75.6794 30.0573C75.0617 30.0573 74.6042 29.9543 74.3067 29.7484C74.0322 29.5655 73.8606 29.3136 73.792 28.9934C73.7233 28.6732 73.689 28.3184 73.689 27.9296V15.1976C73.689 14.7858 73.7233 14.4312 73.792 14.1338C73.8606 13.8135 74.0322 13.5733 74.3067 13.4131C74.6042 13.2301 75.0733 13.1386 75.7138 13.1386C76.3315 13.1386 76.7776 13.2186 77.0522 13.3788C77.3497 13.539 77.5326 13.7449 77.6012 13.9965C77.6928 14.2253 77.7385 14.4541 77.7385 14.6829L77.464 15.3006C77.5785 15.1176 77.7385 14.9002 77.9444 14.6486C78.1503 14.374 78.4249 14.1109 78.768 13.8593C79.1112 13.5847 79.523 13.3674 80.0035 13.2072C80.4839 13.0242 81.056 12.9327 81.7194 12.9327C81.9939 12.9327 82.2801 12.967 82.5773 13.0356C82.8978 13.0814 83.2067 13.1615 83.5039 13.2758C83.8244 13.3674 84.1103 13.4932 84.3618 13.6533C84.6137 13.8135 84.808 14.008 84.9452 14.2367C85.0825 14.4427 85.1511 14.6829 85.1511 14.9574C85.1511 15.6895 84.9682 16.3072 84.6021 16.8106C84.2362 17.3139 83.8014 17.5656 83.298 17.5656C82.9548 17.5656 82.7032 17.5313 82.543 17.4626C82.383 17.394 82.2458 17.3139 82.1312 17.2224C82.0399 17.1309 81.891 17.0508 81.6851 16.9822C81.5021 16.9135 81.2046 16.8792 80.7928 16.8792C80.4496 16.8792 80.0951 16.9364 79.7289 17.0508C79.3858 17.1652 79.0656 17.3368 78.768 17.5656C78.4708 17.7944 78.2306 18.0918 78.0474 18.4578C77.8644 18.801 77.7728 19.2014 77.7728 19.659V27.9982C77.7728 28.387 77.7385 28.7418 77.6699 29.062C77.6012 29.3595 77.4183 29.5998 77.1208 29.7827C76.8235 29.9657 76.3431 30.0573 75.6794 30.0573ZM93.311 30.2632C91.8237 30.2632 90.5196 30.0229 89.3987 29.5425C88.3006 29.062 87.374 28.41 86.619 27.5864C85.8867 26.7399 85.3263 25.8018 84.9374 24.7723C84.5713 23.7199 84.3883 22.6332 84.3883 21.5121C84.3883 19.8649 84.7658 18.4006 85.5208 17.1194C86.2758 15.8383 87.3167 14.8316 88.6437 14.0995C89.9935 13.3674 91.5378 13.0013 93.2766 13.0013C94.5121 13.0013 95.5986 13.1958 96.5368 13.5847C97.4748 13.9736 98.2527 14.4884 98.8704 15.129C99.5109 15.7467 99.9913 16.4331 100.312 17.1881C100.655 17.9431 100.827 18.6752 100.827 19.3844C100.827 20.597 100.529 21.4778 99.9343 22.0269C99.3622 22.576 98.6416 22.8505 97.7723 22.8505H88.7124C88.7351 23.6284 88.9753 24.3033 89.433 24.8753C89.9135 25.4472 90.5082 25.8934 91.2176 26.2137C91.9496 26.5111 92.6932 26.6598 93.4482 26.6598C94.02 26.6598 94.5234 26.6255 94.9582 26.5568C95.4157 26.4882 95.8045 26.4081 96.125 26.3166C96.4452 26.2022 96.7198 26.0878 96.9486 25.9734C97.2002 25.8591 97.4291 25.7561 97.635 25.6646C97.8409 25.5731 98.0352 25.5159 98.2184 25.493C98.47 25.4701 98.7215 25.5273 98.9734 25.6646C99.225 25.8018 99.4309 26.0421 99.5911 26.3853C99.7284 26.614 99.8197 26.8314 99.8657 27.0373C99.9343 27.2202 99.9686 27.4034 99.9686 27.5864C99.9686 28.0439 99.6941 28.4786 99.145 28.8905C98.5959 29.2793 97.8179 29.5998 96.8114 29.8513C95.8275 30.1259 94.6607 30.2632 93.311 30.2632ZM88.7124 20.414H95.7475C96.1364 20.414 96.4339 20.3567 96.6398 20.2424C96.8457 20.1051 96.9486 19.8305 96.9486 19.4187C96.9486 18.8925 96.7884 18.4235 96.4682 18.0117C96.1477 17.577 95.7132 17.2453 95.1641 17.0165C94.615 16.7648 93.9743 16.639 93.2423 16.639C92.3957 16.639 91.6294 16.8106 90.943 17.1538C90.2567 17.4741 89.7076 17.9202 89.2958 18.4922C88.9067 19.0641 88.7124 19.7047 88.7124 20.414ZM115.997 29.9886C115.334 29.9886 114.842 29.8627 114.521 29.6111C114.201 29.3596 114.041 29.0164 114.041 28.5816L114.281 27.4491C114.098 27.7466 113.789 28.1011 113.354 28.513C112.92 28.9018 112.348 29.2566 111.639 29.5768C110.93 29.8743 110.072 30.0229 109.065 30.0229C107.99 30.0229 106.971 29.8057 106.01 29.3709C105.073 28.9134 104.238 28.2957 103.505 27.5177C102.796 26.717 102.224 25.8133 101.789 24.8066C101.378 23.7771 101.172 22.6789 101.172 21.5121C101.172 20.3911 101.378 19.3387 101.789 18.3549C102.224 17.3482 102.808 16.456 103.54 15.6781C104.272 14.9002 105.107 14.294 106.045 13.8593C107.006 13.4017 108.012 13.1729 109.065 13.1729C110.003 13.1729 110.792 13.2987 111.433 13.5504C112.096 13.802 112.657 14.1224 113.114 14.5113C113.572 14.8774 113.949 15.2663 114.247 15.6781L114.041 14.6829C114.041 14.1795 114.201 13.802 114.521 13.5504C114.842 13.2758 115.345 13.1386 116.031 13.1386C116.672 13.1386 117.129 13.2415 117.404 13.4474C117.678 13.6305 117.85 13.8936 117.919 14.2367C117.987 14.557 118.022 14.9231 118.022 15.3349V27.8952C118.022 28.2841 117.987 28.6389 117.919 28.9591C117.85 29.2793 117.667 29.5311 117.37 29.7141C117.095 29.897 116.638 29.9886 115.997 29.9886ZM109.682 26.0078C110.46 26.0078 111.158 25.8133 111.776 25.4244C112.394 25.0354 112.886 24.5092 113.251 23.8457C113.641 23.1594 113.835 22.4044 113.835 21.5808C113.835 20.6885 113.641 19.9106 113.251 19.2471C112.863 18.5837 112.348 18.0689 111.707 17.7028C111.089 17.3139 110.392 17.1194 109.614 17.1194C108.767 17.1194 108.012 17.3253 107.349 17.7372C106.685 18.1261 106.159 18.6637 105.77 19.3501C105.404 20.0136 105.221 20.7686 105.221 21.6151C105.221 22.4387 105.416 23.1823 105.805 23.8457C106.194 24.5092 106.72 25.0354 107.383 25.4244C108.07 25.8133 108.836 26.0078 109.682 26.0078ZM121.74 30.0229C121.122 30.0229 120.664 29.9313 120.367 29.7484C120.092 29.5655 119.921 29.3136 119.852 28.9934C119.784 28.6732 119.749 28.33 119.749 27.9639V15.129C119.749 14.7629 119.784 14.4312 119.852 14.1338C119.921 13.8364 120.104 13.5961 120.401 13.4131C120.699 13.2301 121.168 13.1386 121.808 13.1386C122.472 13.1386 122.952 13.2758 123.25 13.5504C123.57 13.8249 123.73 14.2596 123.73 14.8545L123.421 15.8154C123.535 15.5637 123.73 15.2892 124.005 14.9917C124.279 14.6943 124.611 14.3969 125 14.0995C125.412 13.802 125.869 13.5618 126.373 13.3788C126.876 13.1958 127.402 13.1043 127.951 13.1043C128.706 13.1043 129.392 13.2301 130.01 13.4818C130.651 13.7334 131.211 14.0995 131.692 14.5799C132.195 15.0604 132.63 15.6438 132.996 16.3301C133.385 15.7353 133.819 15.1976 134.3 14.7172C134.78 14.2139 135.341 13.8249 135.981 13.5504C136.622 13.253 137.343 13.1043 138.144 13.1043C139.471 13.1043 140.58 13.436 141.472 14.0995C142.388 14.7629 143.074 15.7124 143.531 16.9479C144.012 18.1604 144.252 19.6132 144.252 21.3062V27.9639C144.252 28.3527 144.206 28.7075 144.115 29.0277C144.046 29.3252 143.863 29.5655 143.566 29.7484C143.291 29.9313 142.834 30.0229 142.193 30.0229C141.552 30.0229 141.084 29.92 140.786 29.7141C140.488 29.5311 140.306 29.2909 140.237 28.9934C140.168 28.6732 140.134 28.3184 140.134 27.9296V21.2719C140.134 20.4254 140.031 19.6933 139.825 19.0756C139.619 18.4578 139.31 17.9774 138.899 17.6342C138.51 17.291 137.995 17.1194 137.354 17.1194C136.668 17.1194 136.073 17.291 135.57 17.6342C135.089 17.9545 134.712 18.4235 134.437 19.0412C134.163 19.659 134.025 20.414 134.025 21.3062V27.9982C134.025 28.387 133.968 28.7532 133.854 29.0964C133.74 29.4166 133.511 29.6568 133.167 29.817C132.847 30 132.378 30.0686 131.76 30.0229C131.188 30 130.765 29.8857 130.491 29.6798C130.239 29.4739 130.079 29.2223 130.01 28.9248C129.965 28.6046 129.942 28.2727 129.942 27.9296V21.2719C129.942 20.4254 129.839 19.6933 129.633 19.0756C129.427 18.4349 129.118 17.9545 128.706 17.6342C128.317 17.291 127.791 17.1194 127.128 17.1194C126.418 17.1194 125.812 17.3025 125.309 17.6685C124.828 18.0346 124.462 18.5265 124.21 19.1442C123.959 19.7619 123.833 20.4712 123.833 21.2719V27.9982C123.833 28.3643 123.787 28.7075 123.696 29.0277C123.627 29.3479 123.444 29.5882 123.147 29.7484C122.872 29.9313 122.403 30.0229 121.74 30.0229ZM151.852 30.2632C151.257 30.2632 150.628 30.1945 149.965 30.0573C149.301 29.943 148.66 29.7714 148.043 29.5425C147.425 29.2909 146.887 29.0048 146.43 28.6845C145.995 28.3414 145.72 27.9639 145.606 27.5521C145.515 27.3232 145.48 27.1059 145.503 26.9C145.526 26.6712 145.595 26.4425 145.709 26.2137C145.823 25.962 145.995 25.7103 146.224 25.4587C146.43 25.207 146.636 25.0697 146.842 25.0469C147.07 25.0011 147.356 25.0697 147.7 25.2528C147.997 25.3671 148.317 25.5159 148.66 25.6989C149.026 25.8819 149.392 26.065 149.759 26.248C150.147 26.431 150.536 26.5797 150.925 26.6941C151.337 26.8085 151.737 26.8657 152.127 26.8657C152.973 26.8657 153.648 26.7284 154.151 26.4539C154.654 26.1565 154.906 25.7446 154.906 25.2184C154.906 24.921 154.826 24.6579 154.666 24.4291C154.506 24.2003 154.289 24.0173 154.014 23.8801C153.762 23.7199 153.453 23.5826 153.087 23.4682C152.744 23.331 152.367 23.2166 151.955 23.1251C151.566 23.0107 151.154 22.8848 150.72 22.7476C150.147 22.5874 149.575 22.393 149.004 22.1642C148.432 21.9354 147.917 21.638 147.459 21.2719C147.025 20.9058 146.67 20.4483 146.395 19.8992C146.121 19.3501 145.984 18.6637 145.984 17.8401C145.984 16.8106 146.224 15.9412 146.704 15.232C147.207 14.4999 147.928 13.9393 148.866 13.5504C149.804 13.1615 150.937 12.967 152.264 12.967C152.721 12.967 153.156 13.0013 153.568 13.0699C154.002 13.1386 154.414 13.2415 154.803 13.3788C155.215 13.4932 155.604 13.6419 155.97 13.8249C156.359 14.008 156.725 14.2139 157.068 14.4427C157.64 14.7629 157.938 15.1404 157.961 15.5751C157.983 15.987 157.823 16.4331 157.48 16.9135C157.228 17.2338 156.977 17.4626 156.725 17.5999C156.473 17.7143 156.21 17.7143 155.936 17.5999C155.57 17.4169 155.169 17.2224 154.735 17.0165C154.323 16.7877 153.888 16.5932 153.431 16.4331C152.996 16.2729 152.538 16.1929 152.058 16.1929C151.6 16.1929 151.188 16.2615 150.822 16.3988C150.456 16.536 150.182 16.7305 149.999 16.9822C149.816 17.2338 149.724 17.5313 149.724 17.8744C149.724 18.1947 149.816 18.4578 149.999 18.6637C150.182 18.8697 150.422 19.0412 150.72 19.1785C151.017 19.3158 151.372 19.4416 151.783 19.556C152.195 19.6475 152.63 19.739 153.087 19.8305C153.728 19.9678 154.38 20.1394 155.044 20.3453C155.707 20.5512 156.313 20.8372 156.862 21.2033C157.434 21.5693 157.892 22.0612 158.235 22.6789C158.578 23.2738 158.75 24.0516 158.75 25.0125C158.75 26.6827 158.132 27.9752 156.897 28.8905C155.684 29.8057 154.002 30.2632 151.852 30.2632Z" fill="#392C7D"/>
<path d="M136.787 10.6258C136.528 10.6258 136.34 10.5898 136.225 10.5177C136.11 10.4385 136.038 10.334 136.009 10.2043C135.98 10.0746 135.966 9.94126 135.966 9.80434V3.89195C135.966 3.74784 135.977 3.61451 135.998 3.49202C136.027 3.36953 136.099 3.26863 136.214 3.18938C136.33 3.11012 136.521 3.07048 136.787 3.07048C137.061 3.07048 137.252 3.11012 137.36 3.18938C137.475 3.26863 137.544 3.36953 137.566 3.49202C137.594 3.61451 137.609 3.74784 137.609 3.89195V9.19905H140.57C140.693 9.19905 140.808 9.20986 140.916 9.23147C141.024 9.25309 141.111 9.31435 141.176 9.41522C141.248 9.51609 141.284 9.68185 141.284 9.91243C141.284 10.1358 141.248 10.3015 141.176 10.4096C141.103 10.5105 141.014 10.5718 140.905 10.5934C140.804 10.615 140.693 10.6258 140.57 10.6258H136.787ZM143.828 10.6258C143.569 10.6258 143.382 10.5862 143.266 10.5069C143.158 10.4277 143.09 10.3268 143.061 10.2043C143.032 10.0746 143.018 9.93764 143.018 9.79353V3.88114C143.018 3.74422 143.032 3.61813 143.061 3.50283C143.09 3.38034 143.162 3.27944 143.277 3.20019C143.393 3.12093 143.583 3.08129 143.85 3.08129C144.03 3.08129 144.167 3.0921 144.261 3.11372C144.355 3.13533 144.423 3.16776 144.466 3.21099C144.509 3.24701 144.556 3.29025 144.607 3.3407L147.039 6.62656H146.876L149.319 3.3407C149.377 3.26863 149.435 3.21459 149.492 3.17857C149.55 3.14255 149.622 3.11731 149.708 3.10291C149.802 3.0885 149.932 3.08129 150.097 3.08129C150.357 3.08129 150.544 3.12093 150.66 3.20019C150.775 3.27944 150.847 3.38393 150.876 3.51364C150.905 3.63613 150.919 3.76583 150.919 3.90275V9.81515C150.919 9.95207 150.905 10.0818 150.876 10.2043C150.847 10.3268 150.775 10.4277 150.66 10.5069C150.544 10.5862 150.353 10.6258 150.087 10.6258C149.827 10.6258 149.64 10.5862 149.525 10.5069C149.409 10.4277 149.337 10.3232 149.308 10.1935C149.28 10.0637 149.265 9.93045 149.265 9.79353V5.9348L147.655 8.21545C147.626 8.25147 147.586 8.30192 147.536 8.36677C147.485 8.42441 147.413 8.47486 147.32 8.51809C147.233 8.56133 147.114 8.58295 146.963 8.58295C146.804 8.58295 146.678 8.56133 146.585 8.51809C146.498 8.47486 146.43 8.42441 146.379 8.36677C146.329 8.30913 146.285 8.25868 146.25 8.21545L144.65 5.94561V9.81515C144.65 9.95207 144.636 10.0818 144.607 10.2043C144.578 10.3268 144.506 10.4277 144.39 10.5069C144.282 10.5862 144.095 10.6258 143.828 10.6258ZM155.377 10.7339C154.995 10.7339 154.66 10.6871 154.372 10.5934C154.091 10.4997 153.849 10.388 153.648 10.2583C153.453 10.1214 153.298 9.98809 153.183 9.85838C153.067 9.72868 152.988 9.6314 152.945 9.56654C152.823 9.40801 152.747 9.27111 152.718 9.15581C152.689 9.03332 152.704 8.9108 152.761 8.78831C152.826 8.66582 152.934 8.5325 153.086 8.38839C153.237 8.25868 153.377 8.19024 153.507 8.18302C153.644 8.16862 153.777 8.20105 153.907 8.2803C154.037 8.35956 154.163 8.47127 154.285 8.61537C154.458 8.82433 154.628 8.97206 154.793 9.05853C154.966 9.13779 155.146 9.17743 155.334 9.17743C155.572 9.17743 155.773 9.1486 155.939 9.09096C156.105 9.03332 156.231 8.94323 156.317 8.82074C156.404 8.69104 156.447 8.5289 156.447 8.33435C156.447 8.17581 156.386 8.04972 156.263 7.95604C156.148 7.85517 155.99 7.7687 155.788 7.69663C155.593 7.62456 155.373 7.55612 155.128 7.49126C154.891 7.4192 154.653 7.33635 154.415 7.24266C154.249 7.18502 154.091 7.11296 153.939 7.02649C153.788 6.94002 153.644 6.84274 153.507 6.73465C153.37 6.62656 153.251 6.49686 153.15 6.34553C153.057 6.19421 152.981 6.02127 152.923 5.82671C152.873 5.63216 152.848 5.40877 152.848 5.15657C152.848 4.73144 152.952 4.35313 153.161 4.02165C153.37 3.69017 153.658 3.43076 154.026 3.24342C154.401 3.04886 154.829 2.95158 155.312 2.95158C155.636 2.95158 155.917 2.98042 156.155 3.03805C156.4 3.09569 156.606 3.16417 156.771 3.24342C156.937 3.32268 157.067 3.40196 157.16 3.48121C157.261 3.55328 157.33 3.61092 157.366 3.65415C157.568 3.8415 157.679 4.00363 157.701 4.14055C157.722 4.27025 157.647 4.454 157.474 4.69179C157.294 4.94399 157.114 5.0845 156.933 5.11334C156.761 5.14217 156.562 5.08091 156.339 4.92959C156.253 4.85033 156.166 4.77826 156.08 4.71341C155.993 4.64856 155.889 4.59811 155.766 4.56209C155.651 4.51885 155.496 4.49724 155.301 4.49724C155.186 4.49724 155.078 4.51526 154.977 4.55128C154.876 4.58011 154.79 4.62335 154.718 4.68099C154.646 4.73862 154.588 4.81069 154.545 4.89716C154.501 4.97642 154.48 5.06651 154.48 5.16738C154.48 5.3331 154.534 5.46643 154.642 5.5673C154.757 5.66818 154.905 5.75105 155.085 5.8159C155.272 5.87354 155.478 5.93121 155.701 5.98885C155.932 6.0393 156.166 6.10053 156.404 6.17259C156.62 6.24466 156.829 6.33473 157.031 6.44281C157.233 6.54369 157.413 6.67339 157.571 6.83193C157.73 6.99047 157.856 7.18862 157.949 7.42641C158.05 7.6642 158.101 7.95604 158.101 8.30192C158.101 8.73427 158.018 9.10536 157.852 9.41522C157.687 9.72508 157.467 9.97728 157.193 10.1718C156.919 10.3664 156.624 10.5069 156.307 10.5934C155.99 10.6871 155.68 10.7339 155.377 10.7339Z" fill="#FF4667"/>
<path d="M36.1372 14.9346V22.083C36.1372 23.1271 35.6465 24.0975 34.8388 24.6447C34.1597 25.1048 33.2456 25.691 32.165 26.3019V14.9346H36.1372Z" fill="#FF4667"/>
<path d="M31.9623 14.9346V26.352C29.0505 28.0093 24.9386 29.8468 21.0355 29.8468C15.686 29.8468 9.94438 26.3935 7.43486 24.6881C6.62706 24.1388 6.13654 23.1644 6.13654 22.1161V14.9346H31.9623Z" fill="#FF4667"/>
<path d="M35.9391 14.7855V21.7672C35.9391 22.7902 35.4487 23.7406 34.641 24.2762C32.1317 25.9403 26.3903 29.3096 21.0403 29.3096C15.6904 29.3096 9.94912 25.9403 7.4397 24.2762C6.63212 23.7406 6.14146 22.7902 6.14146 21.7672V14.7855H35.9391ZM36.7501 13.9739H35.9391H6.14157H5.33075V14.7855V21.7672C5.33075 23.0721 5.95174 24.2631 6.99192 24.9528C8.31399 25.8296 10.4039 27.0978 12.852 28.1614C15.8453 29.462 18.6003 30.1213 21.0403 30.1213C23.4804 30.1213 26.2353 29.462 29.2288 28.1614C31.6767 27.0978 33.7666 25.8295 35.0887 24.9528C36.1288 24.2631 36.7501 23.0721 36.7501 21.7672V14.7855V13.9739Z" fill="#FF4667"/>
<path d="M31.5867 28.0079C30.8277 28.0998 30.1286 28.4665 29.6209 29.0388C29.1134 29.6114 28.8329 30.3499 28.8321 31.1152V33.8765C28.8321 34.9958 29.4285 36.0305 30.3972 36.5901C31.3659 37.15 32.5592 37.15 33.5277 36.5901C34.4964 36.0305 35.0931 34.9958 35.0931 33.8765V31.1152C35.0923 30.3499 34.8115 29.6114 34.304 29.0388C33.7966 28.4665 33.0972 28.0998 32.3382 28.0079" fill="#392C7D"/>
<path d="M34.3413 31.4837H29.5836V31.1489C29.5836 29.8338 30.6488 28.7678 31.9623 28.7678C33.2761 28.7678 34.3413 29.8341 34.3413 31.1489V31.4837Z" fill="white"/>
<path fill-rule="evenodd" clip-rule="evenodd" d="M31.9623 15.4035C32.1862 15.4035 32.3677 15.585 32.3677 15.8088V32.0117C32.3677 32.2356 32.1862 32.4171 31.9623 32.4171C31.7385 32.4171 31.557 32.2356 31.557 32.0117V15.8088C31.557 15.585 31.7385 15.4035 31.9623 15.4035Z" fill="#392C7D"/>
<path d="M39.9694 13.8598L21.9503 22.447C21.3435 22.7361 20.6387 22.7354 20.0325 22.4449L1.91492 13.7647C0.235291 12.9599 0.226372 10.5695 1.89992 9.75222L20.0076 0.9092C20.6277 0.606354 21.3531 0.608487 21.9715 0.914982L40.0005 9.85122C41.6656 10.6766 41.6472 13.0604 39.9694 13.8598Z" fill="#392C7D"/>
<path d="M20.9837 1.05745C21.2321 1.05745 21.4803 1.11305 21.7086 1.22427L40.1645 10.2097C41.3865 10.8047 41.373 12.523 40.1418 13.0994L21.6932 21.7353C21.4712 21.8392 21.231 21.8912 20.991 21.8912C20.7498 21.8912 20.5088 21.8388 20.2858 21.7339L1.73914 13.0056C0.506482 12.4255 0.499994 10.7024 1.7281 10.1133L20.2674 1.22008C20.4935 1.11166 20.7387 1.05745 20.9837 1.05745ZM20.9837 0.260208C20.6143 0.260208 20.2438 0.344416 19.9119 0.503565L1.37265 9.39674C0.522393 9.80464 -0.00352955 10.6358 1.7833e-05 11.5658C0.00356521 12.4959 0.535774 13.3231 1.38907 13.7247L19.9356 22.4529C20.2631 22.607 20.628 22.6884 20.991 22.6884C21.3522 22.6884 21.7155 22.6077 22.0417 22.455L40.4901 13.8191C41.3424 13.4201 41.8766 12.5958 41.8839 11.6676C41.8912 10.7395 41.3703 9.90708 40.5242 9.49521L22.0684 0.509842C21.7331 0.346508 21.3579 0.260208 20.9837 0.260208Z" fill="#392C7D"/>
</g>
<defs>
<clipPath id="clip0_1_441">
<rect width="159.97" height="37.02" fill="white" transform="translate(0 -0.0100098)"/>
</clipPath>
</defs>
</svg>
